<?xml version="1.0" encoding="UTF-8"?>
<svg width="137px" height="212px" viewBox="0 0 137 212" version="1.1" xmlns="http://www.w3.org/2000/svg" xmlns:xlink="http://www.w3.org/1999/xlink">
    <!-- Generator: Sketch 50.2 (55047) - http://www.bohemiancoding.com/sketch -->
    <title>Group 2</title>
    <desc>Created with Sketch.</desc>
    <defs></defs>
    <g id="Page-1" stroke="none" stroke-width="1" fill="none" fill-rule="evenodd">
        <g id="Desktop-HD" transform="translate(-652.000000, -195.000000)" fill="#F38B3C">
            <g id="Group-2" transform="translate(652.000000, 195.000000)">
                <path d="M68.5,136 C31.0390625,136 0,106.611131 0,68.1349332 C0,29.124344 31.0390625,0 68.5,0 C105.960937,0 137,29.124344 137,68.1349332 C137,106.611131 105.960937,136 68.5,136 Z M69.1782178,103.443265 C89.5357804,103.443265 104.445545,86.8342598 104.445545,67.6479948 C104.445545,47.8890055 89.5357804,31.28 69.1782178,31.28 C48.8206552,31.28 33.9108911,47.8890055 33.9108911,67.6479948 C33.9108911,86.8342598 48.8206552,103.443265 69.1782178,103.443265 Z" id="Combined-Shape"></path>
                <path d="M57,69.3015873 C57,62.5076082 62.372583,57 69,57 C75.627417,57 81,62.5076082 81,69.3015873 L81,199.698413 C81,206.492392 75.627417,212 69,212 C62.372583,212 57,206.492392 57,199.698413 L57,69.3015873 Z" id="Line-2" fill-rule="nonzero"></path>
                <g id="Group-5" transform="translate(3.000000, 129.000000)" fill-rule="nonzero">
                    <g id="Group" transform="translate(27.971149, 33.890341) scale(1, -1) rotate(118.000000) translate(-27.971149, -33.890341) translate(-1.528851, 18.890341)">
                        <path d="M10.850119,15.6348603 C9.34255907,13.9103703 7.79133452,11.9916022 6.19644536,9.87855594 L10.0658173,1.10802471 C12.6711456,0.815369727 15.1021458,0.605624527 17.3588181,0.478789109 C22.4533598,7.3345183 26.5900215,11.4137648 29.1698318,12.6454449 C31.9324445,13.9644003 38.4806918,14.939915 48.2589974,15.1995635 C50.006508,17.4844686 51.8455929,20.055341 53.7762522,22.9121808 L50.0438206,29.7579847 C46.5947755,29.7045486 43.4206163,29.5697452 40.5213429,29.3535746 C34.803752,21.0918144 30.5118668,16.3132034 28.7071092,15.4515571 C26.9953869,14.6343288 20.7028401,14.4766461 10.850119,15.6348603 Z M0.885743689,2.36675581 C17.9665061,-0.344566005 29.3463813,-0.344566005 35.0253691,2.36675581 C40.704357,5.07807763 48.4371678,14.2030562 58.2238016,29.7416916 C40.883638,30.0471923 29.0928947,28.7100438 22.8515719,25.7302462 C16.6102491,22.7504485 9.28830634,14.9626184 0.885743689,2.36675581 Z" id="Rectangle"></path>
                    </g>
                    <g id="Group" transform="translate(103.028851, 33.890341) scale(-1, -1) rotate(118.000000) translate(-103.028851, -33.890341) translate(73.528851, 18.890341)">
                        <path d="M10.850119,15.6348603 C9.34255907,13.9103703 7.79133452,11.9916022 6.19644536,9.87855594 L10.0658173,1.10802471 C12.6711456,0.815369727 15.1021458,0.605624527 17.3588181,0.478789109 C22.4533598,7.3345183 26.5900215,11.4137648 29.1698318,12.6454449 C31.9324445,13.9644003 38.4806918,14.939915 48.2589974,15.1995635 C50.006508,17.4844686 51.8455929,20.055341 53.7762522,22.9121808 L50.0438206,29.7579847 C46.5947755,29.7045486 43.4206163,29.5697452 40.5213429,29.3535746 C34.803752,21.0918144 30.5118668,16.3132034 28.7071092,15.4515571 C26.9953869,14.6343288 20.7028401,14.4766461 10.850119,15.6348603 Z M0.885743689,2.36675581 C17.9665061,-0.344566005 29.3463813,-0.344566005 35.0253691,2.36675581 C40.704357,5.07807763 48.4371678,14.2030562 58.2238016,29.7416916 C40.883638,30.0471923 29.0928947,28.7100438 22.8515719,25.7302462 C16.6102491,22.7504485 9.28830634,14.9626184 0.885743689,2.36675581 Z" id="Rectangle"></path>
                    </g>
                </g>
            </g>
        </g>
    </g>
</svg>